<svg width="65" height="93" viewBox="0 0 65 93" fill="none" xmlns="http://www.w3.org/2000/svg">
<path d="M52.5873 46.5H46.9109V55.0145H38.3964V60.6909H52.5873V46.5ZM18.5291 37.9855H27.0436V32.3091H12.8527V46.5H18.5291V37.9855ZM58.2636 20.9564H7.17636C5.6709 20.9564 4.22709 21.5545 3.16257 22.619C2.09804 23.6835 1.5 25.1273 1.5 26.6328V66.3672C1.5 67.8727 2.09804 69.3165 3.16257 70.381C4.22709 71.4455 5.6709 72.0436 7.17636 72.0436H58.2636C59.7691 72.0436 61.2129 71.4455 62.2774 70.381C63.342 69.3165 63.94 67.8727 63.94 66.3672V26.6328C63.94 25.1273 63.342 23.6835 62.2774 22.619C61.2129 21.5545 59.7691 20.9564 58.2636 20.9564ZM58.2636 66.3672H7.17636V26.6328H58.2636V66.3672Z" fill="#03D6F3"/>
</svg>
