<svg width="67" height="101" viewBox="0 0 67 101" fill="none" xmlns="http://www.w3.org/2000/svg">
<path d="M33.5 46.9899C34.4309 46.9899 35.3238 47.3597 35.982 48.018C36.6403 48.6762 37.0101 49.5691 37.0101 50.5C37.0101 51.4309 36.6403 52.3238 35.982 52.982C35.3238 53.6403 34.4309 54.0101 33.5 54.0101C32.5691 54.0101 31.6762 53.6403 31.018 52.982C30.3597 52.3238 29.9899 51.4309 29.9899 50.5C29.9899 49.5691 30.3597 48.6762 31.018 48.018C31.6762 47.3597 32.5691 46.9899 33.5 46.9899ZM6.19132 23.1913C11.2108 18.1719 22.0921 20.4183 33.5 27.8949C44.9079 20.4183 55.7892 18.1719 60.8087 23.1913C65.8281 28.2108 63.5817 39.0921 56.1051 50.5C63.5817 61.9079 65.8281 72.7892 60.8087 77.8087C55.7892 82.8281 44.9079 80.5817 33.5 73.1051C22.0921 80.5817 11.2108 82.8281 6.19132 77.8087C1.17186 72.7892 3.41833 61.9079 10.8949 50.5C3.41833 39.0921 1.17186 28.2108 6.19132 23.1913ZM45.9258 38.0742C48.067 40.2505 50.0326 42.4618 51.8579 44.6732C56.7018 37.1967 58.4569 30.7732 55.8243 28.1757C53.2268 25.5431 46.8033 27.2982 39.3268 32.1421C41.5382 33.9674 43.7495 35.933 45.9258 38.0742ZM21.0742 62.9258C18.933 60.7495 16.9674 58.5382 15.1421 56.3268C10.2982 63.8033 8.54309 70.2268 11.1757 72.8243C13.7732 75.4569 20.1967 73.7018 27.6732 68.8579C25.4618 67.0326 23.2505 65.067 21.0742 62.9258ZM11.1757 28.1757C8.54309 30.7732 10.2982 37.1967 15.1421 44.6732C16.9674 42.4618 18.933 40.2505 21.0742 38.0742C23.2505 35.933 25.4618 33.9674 27.6732 32.1421C20.1967 27.2982 13.7732 25.5431 11.1757 28.1757ZM26.0586 57.9414C28.5156 60.3985 31.0429 62.645 33.5 64.6458C35.9571 62.645 38.4844 60.3985 40.9414 57.9414C43.3985 55.4844 45.645 52.9571 47.6458 50.5C45.645 48.0429 43.3985 45.5156 40.9414 43.0586C38.4844 40.6015 35.9571 38.355 33.5 36.3542C31.0429 38.355 28.5156 40.6015 26.0586 43.0586C23.6015 45.5156 21.355 48.0429 19.3542 50.5C21.355 52.9571 23.6015 55.4844 26.0586 57.9414ZM55.8243 72.8243C58.4569 70.2268 56.7018 63.8033 51.8579 56.3268C50.0326 58.5382 48.067 60.7495 45.9258 62.9258C43.7495 65.067 41.5382 67.0326 39.3268 68.8579C46.8033 73.7018 53.2268 75.4569 55.8243 72.8243Z" fill="white"/>
</svg>
